<svg xmlns="http://www.w3.org/2000/svg" xmlns:xlink="http://www.w3.org/1999/xlink" width="260" zoomAndPan="magnify" viewBox="0 0 194.87999 67.499998" height="90" preserveAspectRatio="xMidYMid meet" version="1.0"><defs><g/></defs><g fill="#ffffff" fill-opacity="1"><g transform="translate(1.168743, 48.687102)"><g><path d="M 3.015625 -1.8125 C 4.285156 -1.84375 5.191406 -2.128906 5.734375 -2.671875 C 6.285156 -3.222656 6.597656 -3.875 6.671875 -4.625 C 6.742188 -5.375 6.78125 -6.675781 6.78125 -8.53125 L 6.78125 -32.1875 C 6.78125 -33.71875 6.835938 -35.03125 6.953125 -36.125 L 3.015625 -35.90625 L 3.015625 -38.3125 L 29.34375 -38.3125 L 29.609375 -28.734375 L 27.8125 -28.734375 C 27.8125 -31.722656 27.160156 -33.765625 25.859375 -34.859375 C 24.566406 -35.960938 22.753906 -36.472656 20.421875 -36.390625 L 15.703125 -36.28125 C 14.390625 -36.25 13.441406 -36.003906 12.859375 -35.546875 C 12.273438 -35.085938 11.910156 -34.445312 11.765625 -33.625 C 11.617188 -32.8125 11.546875 -31.53125 11.546875 -29.78125 L 11.546875 -21.015625 L 21.84375 -20.96875 L 21.453125 -25.671875 L 23.859375 -25.671875 L 23.859375 -14.171875 L 22.0625 -14.171875 C 22.0625 -15.523438 21.894531 -16.554688 21.5625 -17.265625 C 21.238281 -17.984375 20.738281 -18.457031 20.0625 -18.6875 C 19.382812 -18.925781 18.441406 -19.046875 17.234375 -19.046875 L 15.546875 -19 L 11.546875 -18.828125 L 11.546875 -6.296875 C 11.546875 -4.398438 11.492188 -2.976562 11.390625 -2.03125 L 21.84375 -2.1875 C 24.394531 -2.226562 26.34375 -2.875 27.6875 -4.125 C 29.039062 -5.382812 29.71875 -7.566406 29.71875 -10.671875 L 31.578125 -10.671875 L 31.25 0 L 3.015625 0 Z M 3.015625 -1.8125 "/></g></g></g><g fill="#ffffff" fill-opacity="1"><g transform="translate(35.211619, 48.687102)"><g><path d="M 13.625 0.875 C 11.914062 0.875 10.347656 0.644531 8.921875 0.1875 C 7.492188 -0.269531 6.269531 -0.84375 5.25 -1.53125 L 5.46875 0.390625 L 3.171875 0.390625 L 2.84375 -9.03125 L 4.546875 -9.03125 C 4.617188 -7.53125 5.023438 -6.195312 5.765625 -5.03125 C 6.515625 -3.863281 7.5 -2.941406 8.71875 -2.265625 C 9.945312 -1.597656 11.253906 -1.265625 12.640625 -1.265625 C 14.210938 -1.265625 15.609375 -1.632812 16.828125 -2.375 C 18.054688 -3.125 18.671875 -4.191406 18.671875 -5.578125 C 18.671875 -6.597656 18.367188 -7.457031 17.765625 -8.15625 C 17.160156 -8.851562 16.410156 -9.425781 15.515625 -9.875 C 14.617188 -10.332031 13.367188 -10.875 11.765625 -11.5 C 9.828125 -12.226562 8.273438 -12.910156 7.109375 -13.546875 C 5.941406 -14.179688 4.9375 -15.046875 4.09375 -16.140625 C 3.257812 -17.234375 2.84375 -18.625 2.84375 -20.3125 C 2.84375 -21.507812 3.132812 -22.707031 3.71875 -23.90625 C 4.300781 -25.113281 5.285156 -26.140625 6.671875 -26.984375 C 8.054688 -27.828125 9.898438 -28.25 12.203125 -28.25 C 13.335938 -28.25 14.492188 -28.0625 15.671875 -27.6875 C 16.859375 -27.320312 17.96875 -26.722656 19 -25.890625 L 18.890625 -27.96875 L 21.1875 -27.96875 L 21.1875 -18.390625 L 19.4375 -18.390625 C 19.320312 -20.503906 18.671875 -22.335938 17.484375 -23.890625 C 16.296875 -25.441406 14.628906 -26.21875 12.484375 -26.21875 C 10.835938 -26.21875 9.53125 -25.804688 8.5625 -24.984375 C 7.59375 -24.160156 7.109375 -23.1875 7.109375 -22.0625 C 7.109375 -21 7.425781 -20.101562 8.0625 -19.375 C 8.707031 -18.644531 9.503906 -18.023438 10.453125 -17.515625 C 11.398438 -17.003906 12.675781 -16.4375 14.28125 -15.8125 C 16.175781 -15.050781 17.707031 -14.34375 18.875 -13.6875 C 20.050781 -13.03125 21.046875 -12.160156 21.859375 -11.078125 C 22.679688 -10.003906 23.09375 -8.703125 23.09375 -7.171875 C 23.09375 -5.421875 22.644531 -3.941406 21.75 -2.734375 C 20.863281 -1.535156 19.695312 -0.632812 18.25 -0.03125 C 16.8125 0.570312 15.269531 0.875 13.625 0.875 Z M 13.625 0.875 "/></g></g></g><g fill="#ffffff" fill-opacity="1"><g transform="translate(60.552221, 48.687102)"><g><path d="M 15.765625 0.875 C 13.285156 0.875 11.015625 0.3125 8.953125 -0.8125 C 6.890625 -1.945312 5.253906 -3.570312 4.046875 -5.6875 C 2.847656 -7.800781 2.25 -10.300781 2.25 -13.1875 C 2.25 -15.738281 2.859375 -18.171875 4.078125 -20.484375 C 5.296875 -22.804688 6.988281 -24.679688 9.15625 -26.109375 C 11.332031 -27.535156 13.789062 -28.25 16.53125 -28.25 C 18.5 -28.25 20.25 -27.9375 21.78125 -27.3125 C 23.3125 -26.6875 24.503906 -25.863281 25.359375 -24.84375 C 26.222656 -23.820312 26.65625 -22.710938 26.65625 -21.515625 C 26.65625 -20.671875 26.414062 -19.972656 25.9375 -19.421875 C 25.46875 -18.878906 24.8125 -18.609375 23.96875 -18.609375 C 23.164062 -18.609375 22.5625 -18.875 22.15625 -19.40625 C 21.757812 -19.9375 21.5625 -20.492188 21.5625 -21.078125 C 21.5625 -21.984375 21.835938 -22.710938 22.390625 -23.265625 C 21.984375 -24.390625 21.207031 -25.160156 20.0625 -25.578125 C 18.914062 -26.003906 17.773438 -26.21875 16.640625 -26.21875 C 14.960938 -26.21875 13.457031 -25.757812 12.125 -24.84375 C 10.789062 -23.9375 9.738281 -22.609375 8.96875 -20.859375 C 8.207031 -19.109375 7.828125 -17.007812 7.828125 -14.5625 C 7.828125 -12.113281 8.21875 -9.941406 9 -8.046875 C 9.789062 -6.148438 10.894531 -4.660156 12.3125 -3.578125 C 13.738281 -2.503906 15.378906 -1.96875 17.234375 -1.96875 C 18.878906 -1.96875 20.492188 -2.414062 22.078125 -3.3125 C 23.671875 -4.207031 24.921875 -5.328125 25.828125 -6.671875 L 27.25 -5.578125 C 25.90625 -3.460938 24.164062 -1.859375 22.03125 -0.765625 C 19.894531 0.328125 17.804688 0.875 15.765625 0.875 Z M 15.765625 0.875 "/></g></g></g><g fill="#ffffff" fill-opacity="1"><g transform="translate(89.669278, 48.687102)"><g><path d="M 10.078125 0.875 C 7.410156 0.875 5.375 0.273438 3.96875 -0.921875 C 2.5625 -2.128906 1.859375 -3.703125 1.859375 -5.640625 C 1.859375 -7.753906 2.707031 -9.539062 4.40625 -11 C 6.101562 -12.457031 8.238281 -13.539062 10.8125 -14.25 C 13.382812 -14.96875 15.96875 -15.304688 18.5625 -15.265625 L 18.5625 -18.671875 C 18.5625 -21.035156 18.210938 -22.882812 17.515625 -24.21875 C 16.816406 -25.550781 15.335938 -26.21875 13.078125 -26.21875 C 11.953125 -26.21875 10.875 -25.976562 9.84375 -25.5 C 8.820312 -25.03125 8.078125 -24.320312 7.609375 -23.375 C 8.078125 -22.863281 8.3125 -22.171875 8.3125 -21.296875 C 8.3125 -20.742188 8.109375 -20.222656 7.703125 -19.734375 C 7.304688 -19.242188 6.726562 -19 5.96875 -19 C 5.195312 -19 4.59375 -19.242188 4.15625 -19.734375 C 3.71875 -20.222656 3.5 -20.867188 3.5 -21.671875 C 3.5 -22.878906 3.960938 -23.984375 4.890625 -24.984375 C 5.828125 -25.984375 7.125 -26.773438 8.78125 -27.359375 C 10.445312 -27.953125 12.300781 -28.25 14.34375 -28.25 C 17.40625 -28.25 19.664062 -27.4375 21.125 -25.8125 C 22.582031 -24.1875 23.296875 -21.617188 23.265625 -18.109375 L 23.203125 -5.796875 C 23.203125 -4.628906 23.128906 -3.390625 22.984375 -2.078125 L 26.875 -2.296875 L 26.875 0 L 19.046875 0 C 18.941406 -0.550781 18.816406 -1.59375 18.671875 -3.125 C 16.003906 -0.457031 13.140625 0.875 10.078125 0.875 Z M 11.328125 -2.25 C 12.710938 -2.25 13.96875 -2.507812 15.09375 -3.03125 C 16.226562 -3.5625 17.382812 -4.375 18.5625 -5.46875 C 18.519531 -6.019531 18.5 -6.953125 18.5 -8.265625 L 18.5625 -13.40625 C 15.5625 -13.300781 12.894531 -12.691406 10.5625 -11.578125 C 8.226562 -10.460938 7.0625 -8.753906 7.0625 -6.453125 C 7.0625 -5.109375 7.460938 -4.070312 8.265625 -3.34375 C 9.066406 -2.613281 10.085938 -2.25 11.328125 -2.25 Z M 11.328125 -2.25 "/></g></g></g><g fill="#ffffff" fill-opacity="1"><g transform="translate(117.910642, 48.687102)"><g><path d="M 1.921875 12.3125 C 2.972656 12.3125 3.726562 12.046875 4.1875 11.515625 C 4.644531 10.992188 4.910156 10.335938 4.984375 9.546875 C 5.054688 8.765625 5.109375 7.460938 5.140625 5.640625 L 5.25 -20.796875 C 5.25 -22.328125 5.320312 -23.515625 5.46875 -24.359375 L 1.59375 -24.140625 L 1.59375 -26.4375 C 3.738281 -26.4375 5.210938 -26.550781 6.015625 -26.78125 C 6.816406 -27.019531 7.472656 -27.398438 7.984375 -27.921875 L 9.640625 -27.921875 C 9.785156 -26.128906 9.859375 -25.140625 9.859375 -24.953125 C 10.953125 -25.941406 12.265625 -26.738281 13.796875 -27.34375 C 15.328125 -27.945312 16.84375 -28.25 18.34375 -28.25 C 20.488281 -28.25 22.472656 -27.691406 24.296875 -26.578125 C 26.117188 -25.460938 27.585938 -23.875 28.703125 -21.8125 C 29.816406 -19.75 30.375 -17.367188 30.375 -14.671875 C 30.375 -11.640625 29.734375 -8.945312 28.453125 -6.59375 C 27.179688 -4.238281 25.476562 -2.40625 23.34375 -1.09375 C 21.207031 0.21875 18.898438 0.875 16.421875 0.875 C 13.898438 0.875 11.710938 0.269531 9.859375 -0.9375 L 9.859375 8.15625 C 9.859375 9.800781 9.785156 11.039062 9.640625 11.875 L 13.078125 11.71875 L 13.078125 13.953125 L 1.921875 13.953125 Z M 16.3125 -1.3125 C 18.03125 -1.3125 19.515625 -1.835938 20.765625 -2.890625 C 22.023438 -3.953125 23 -5.429688 23.6875 -7.328125 C 24.382812 -9.234375 24.734375 -11.390625 24.734375 -13.796875 C 24.734375 -17.078125 24.03125 -19.859375 22.625 -22.140625 C 21.226562 -24.421875 19.140625 -25.5625 16.359375 -25.5625 C 15.160156 -25.5625 13.992188 -25.269531 12.859375 -24.6875 C 11.734375 -24.101562 10.75 -23.375 9.90625 -22.5 C 9.945312 -22.238281 9.96875 -21.125 9.96875 -19.15625 L 9.90625 -3.453125 C 11.769531 -2.023438 13.90625 -1.3125 16.3125 -1.3125 Z M 16.3125 -1.3125 "/></g></g></g><g fill="#ffffff" fill-opacity="1"><g transform="translate(150.585236, 48.687102)"><g><path d="M 15.65625 0.875 C 13.132812 0.875 10.859375 0.28125 8.828125 -0.90625 C 6.804688 -2.09375 5.210938 -3.789062 4.046875 -6 C 2.878906 -8.207031 2.296875 -10.75 2.296875 -13.625 C 2.296875 -16.175781 2.878906 -18.570312 4.046875 -20.8125 C 5.210938 -23.0625 6.84375 -24.863281 8.9375 -26.21875 C 11.039062 -27.570312 13.425781 -28.25 16.09375 -28.25 C 18.175781 -28.25 20.054688 -27.789062 21.734375 -26.875 C 23.410156 -25.957031 24.738281 -24.597656 25.71875 -22.796875 C 26.707031 -20.992188 27.203125 -18.773438 27.203125 -16.140625 L 7.9375 -15.8125 C 7.894531 -11.4375 8.613281 -8.023438 10.09375 -5.578125 C 11.570312 -3.140625 13.863281 -1.921875 16.96875 -1.921875 C 18.644531 -1.921875 20.367188 -2.359375 22.140625 -3.234375 C 23.910156 -4.109375 25.269531 -5.179688 26.21875 -6.453125 L 27.53125 -5.359375 C 26.144531 -3.242188 24.347656 -1.675781 22.140625 -0.65625 C 19.929688 0.363281 17.769531 0.875 15.65625 0.875 Z M 22.0625 -18.109375 C 22.0625 -20.304688 21.566406 -22.1875 20.578125 -23.75 C 19.597656 -25.320312 18.117188 -26.109375 16.140625 -26.109375 C 11.617188 -26.109375 8.9375 -23.441406 8.09375 -18.109375 Z M 22.0625 -18.109375 "/></g></g></g><g fill="#ffffff" fill-opacity="1"><g transform="translate(180.249615, 48.687102)"><g><path d="M 6.671875 0.875 C 5.796875 0.875 5.046875 0.535156 4.421875 -0.140625 C 3.804688 -0.816406 3.5 -1.644531 3.5 -2.625 C 3.5 -3.613281 3.816406 -4.453125 4.453125 -5.140625 C 5.097656 -5.835938 5.859375 -6.1875 6.734375 -6.1875 C 7.640625 -6.1875 8.394531 -5.835938 9 -5.140625 C 9.601562 -4.453125 9.90625 -3.613281 9.90625 -2.625 C 9.90625 -1.644531 9.582031 -0.816406 8.9375 -0.140625 C 8.300781 0.535156 7.546875 0.875 6.671875 0.875 Z M 6.671875 0.875 "/></g></g></g></svg>